<?xml version="1.0" standalone="no"?>
<!DOCTYPE svg PUBLIC "-//W3C//DTD SVG 20010904//EN"
 "http://www.w3.org/TR/2001/REC-SVG-20010904/DTD/svg10.dtd">
<svg version="1.0" xmlns="http://www.w3.org/2000/svg"
 width="200.000000pt" height="200.000000pt" viewBox="0 0 200.000000 200.000000"
 preserveAspectRatio="xMidYMid meet">

<g transform="translate(0.000000,200.000000) scale(0.100000,-0.100000)"
fill="#000000" stroke="none">
<path d="M800 1861 c-208 -44 -399 -162 -529 -326 -191 -240 -255 -571 -166
-852 31 -100 56 -125 127 -130 66 -5 112 21 134 74 18 41 16 64 -15 177 -42
158 -21 341 55 487 47 88 155 205 239 258 354 224 819 93 1008 -284 53 -106
72 -191 72 -320 0 -141 -16 -211 -75 -330 -92 -187 -274 -335 -480 -391 -90
-25 -300 -25 -390 0 -90 24 -231 95 -318 161 -40 30 -75 55 -78 55 -12 0 24
-50 75 -104 154 -162 381 -247 629 -233 405 22 740 329 803 737 16 102 6 286
-21 378 -131 464 -596 743 -1070 643z"/>
</g>
</svg>
